<?xml version="1.0" encoding="utf-8"?>
<!-- Generator: Adobe Illustrator 19.2.0, SVG Export Plug-In . SVG Version: 6.00 Build 0)  -->
<svg version="1.1" id="Capa_1" xmlns="http://www.w3.org/2000/svg" xmlns:xlink="http://www.w3.org/1999/xlink" x="0px" y="0px"
	 viewBox="0 0 486.4 486.4" style="enable-background:new 0 0 486.4 486.4;" xml:space="preserve">
<style type="text/css">
	.st0{fill:#DD4B39;}
</style>
<g>
	<g>
		<g>
			<g>
				<path class="st0" d="M395.2,0h-304C40.8,0,0,40.8,0,91.2v304c0,50.4,40.8,91.2,91.2,91.2h304c50.4,0,91.2-40.8,91.2-91.2v-304
					C486.4,40.8,445.6,0,395.2,0z M175.3,406.8c-53.8,0-99.3-21.9-99.3-56.9c0-35.5,41.4-69.9,95.3-69.8l16.8-0.2
					c-7.4-7.1-13.2-15.9-13.2-26.8c0-6.4,2.1-12.6,4.9-18.1l-9,0.3c-44.2,0-73.8-31.5-73.8-70.5c0-38.2,40.9-71.1,84.4-71.1h97
					l-21.8,15.7h-30.7c20.4,7.8,31.3,31.6,31.3,56c0,20.5-11.3,38.1-27.4,50.6c-15.7,12.3-18.6,17.4-18.6,27.8
					c0,8.9,16.8,24,25.5,30.2c25.6,18.1,33.9,34.9,33.9,63C270.6,372,236.7,406.8,175.3,406.8z M425.6,213.4h-60.8v60.7h-30.4v-60.7
					h-60.8v-31h60.8v-60.8h30.4v60.8h60.8V213.4z"/>
				<path class="st0" d="M222.3,167.3c-4.3-32.8-28.1-59.1-53-59.9c-25-0.7-41.7,24.4-37.4,57.2c4.3,32.8,28.1,60,53,60.7
					C209.9,226.2,226.7,200.2,222.3,167.3z"/>
				<path class="st0" d="M205.8,293c-7.4-2.4-15.5-3.8-24.1-3.9c-37.2-0.4-70.5,22.7-70.5,50.4c0,28.3,26.9,51.9,64.1,51.9
					c52.3,0,70.5-22.1,70.5-50.4c0-3.4-0.5-6.7-1.2-10C240.5,315,226,307,205.8,293z"/>
			</g>
		</g>
	</g>
</g>
</svg>
