<svg id="Layer_1" data-name="Layer 1" xmlns="http://www.w3.org/2000/svg" viewBox="0 0 287.51 213.58"><defs><style>.cls-1{fill:#231f20;}.cls-2{fill:#636466;}.cls-3{fill:#fff;}.cls-4{fill:#ed1c24;}.cls-5{fill:none;stroke:#020000;stroke-width:3.34px;}</style></defs><title>SMC_logo</title><path class="cls-1" d="M241.89,62.06" transform="translate(-0.49)"/><rect class="cls-2" x="0.01" width="287.5" height="213.58"/><rect class="cls-2" x="0.01" width="287.5" height="213.58"/><rect class="cls-3" x="0.01" width="287.5" height="213.58"/><path class="cls-1" d="M43.63,78Q61.57,78,74.17,91.2t12.6,32V168.3q0,18.79-12.6,32T43.63,213.58q-17.94,0-30.54-13.24t-12.6-32V152.07H29.32V168.3a17.16,17.16,0,0,0,4.16,11.64,13.12,13.12,0,0,0,20.29,0,17.16,17.16,0,0,0,4.16-11.64V123.24a17.16,17.16,0,0,0-4.16-11.64,13,13,0,0,0-10.15-4.81q-17.94,0-30.54-13.24t-12.6-32V45.28q0-18.79,12.6-32T43.63,0Q61.57,0,74.17,13.25t12.6,32V61.51H57.94V45.28a17.16,17.16,0,0,0-4.16-11.64,13.12,13.12,0,0,0-20.29,0,17.16,17.16,0,0,0-4.16,11.64V61.51a17.14,17.14,0,0,0,4.16,11.64A12.94,12.94,0,0,0,43.63,78Z" transform="translate(-0.49)"/><path class="cls-1" d="M201.69,213.58H172.86V88.43l-28.62,39.72L115.4,88.43V213.58H86.78V0l57.45,79.24L201.69,0V213.58Z" transform="translate(-0.49)"/><path class="cls-1" d="M201.69,45.28q0-18.79,12.6-32T244.84,0q17.94,0,30.55,13.24t12.6,32V61.51H259.15V45.28A17.17,17.17,0,0,0,255,33.64a13.11,13.11,0,0,0-20.29,0,17.17,17.17,0,0,0-4.17,11.64v123a17.17,17.17,0,0,0,4.17,11.64,13.11,13.11,0,0,0,20.29,0,17.17,17.17,0,0,0,4.17-11.64V152.07H288V168.3q0,18.79-12.6,32t-30.55,13.24q-17.94,0-30.55-13.24t-12.6-32v-123Z" transform="translate(-0.49)"/><rect class="cls-4" x="143.75" width="143.75" height="213.58"/><path class="cls-3" d="M288,61.51V45.28q0-18.79-12.6-32T244.84,0Q226.9,0,214.29,13.25t-12.6,32V0L144.23,79.24,86.78,0V45.28q0-18.79-12.6-32T43.63,0Q25.69,0,13.09,13.25t-12.6,32V61.51q0,18.8,12.6,32t30.54,13.24a13,13,0,0,1,10.15,4.81,17.16,17.16,0,0,1,4.16,11.64V168.3a17.16,17.16,0,0,1-4.16,11.64,13.12,13.12,0,0,1-20.29,0,17.16,17.16,0,0,1-4.16-11.64V152.07H0.49V168.3q0,18.79,12.6,32t30.54,13.24q17.94,0,30.54-13.24t12.6-32v45.28H115.4V88.43l28.83,39.72,28.62-39.72V213.58h28.84V168.3q0,18.79,12.6,32t30.55,13.24q17.94,0,30.55-13.24t12.6-32V152.07H259.15V168.3A17.17,17.17,0,0,1,255,179.94a13.11,13.11,0,0,1-20.29,0,17.17,17.17,0,0,1-4.17-11.64v-123a17.17,17.17,0,0,1,4.17-11.64,13.11,13.11,0,0,1,20.29,0,17.17,17.17,0,0,1,4.17,11.64V61.51H288ZM86.78,123.24q0-18.79-12.6-32T43.63,78a12.94,12.94,0,0,1-10.15-4.81,17.14,17.14,0,0,1-4.16-11.64V45.28a17.16,17.16,0,0,1,4.16-11.64,13.12,13.12,0,0,1,20.29,0,17.16,17.16,0,0,1,4.16,11.64V61.51H86.78v61.73Z" transform="translate(-0.49)"/><path class="cls-4" d="M144.24,79.23h0L86.78,0V45.28q0-18.79-12.6-32T43.63,0Q25.69,0,13.09,13.25t-12.6,32V61.51q0,18.8,12.6,32t30.54,13.24a13,13,0,0,1,10.15,4.81,17.16,17.16,0,0,1,4.16,11.64V168.3a17.16,17.16,0,0,1-4.16,11.64,13.12,13.12,0,0,1-20.29,0,17.16,17.16,0,0,1-4.16-11.64V152.07H0.49V168.3q0,18.79,12.6,32t30.54,13.24q17.94,0,30.54-13.24t12.6-32v45.28H115.4V88.43l28.83,39.72h0V79.23Zm-57.46,44q0-18.79-12.6-32T43.63,78a12.94,12.94,0,0,1-10.15-4.81,17.14,17.14,0,0,1-4.16-11.64V45.28a17.16,17.16,0,0,1,4.16-11.64,13.12,13.12,0,0,1,20.29,0,17.16,17.16,0,0,1,4.16,11.64V61.51H86.78v61.73Z" transform="translate(-0.49)"/><path class="cls-1" d="M11.51,149.86V131.59h4.25v18.27H11.51Z" transform="translate(-0.49)"/><path class="cls-1" d="M24.19,149.86V131.59h2.9l12.85,10.76a20,20,0,0,1,2.09,2q-0.18-2.55-.18-3.15v-9.6h3.82v18.27h-2.9l-13.42-11.3a12.9,12.9,0,0,1-1.52-1.49Q28,138.85,28,140v9.88H24.19Z" transform="translate(-0.49)"/><path class="cls-1" d="M54.11,149.86V131.59H72.59v3.19H58.36v4.82H66v3.33H58.36v6.94H54.11Z" transform="translate(-0.49)"/><path class="cls-1" d="M78.36,135.91q0-2.55,1-3.43t3.58-.89H96.35q2.62,0,3.58.89t1,3.43v9.63q0,2.55-1,3.43t-3.58.89H82.9q-2.62,0-3.58-.89t-1-3.43v-9.63Zm4.25,10.52h14V134.84h-14v11.58Z" transform="translate(-0.49)"/><path class="cls-1" d="M109,149.86V131.59h15.65q4.11,0,4.11,3.54v4.28q0,3.54-4.11,3.54H122.2l8.43,6.91h-6.09L117.17,143h-4v6.91H109ZM122.7,134.7h-9.56v5.14h9.56a3.13,3.13,0,0,0,1.38-.21,1.34,1.34,0,0,0,.53-1.25v-2.21a1.34,1.34,0,0,0-.53-1.25A3.11,3.11,0,0,0,122.7,134.7Z" transform="translate(-0.49)"/><path class="cls-1" d="M136.44,149.86V131.59h3.43l8.61,11,8.43-11h3.4v18.27h-3.93v-11.3a19.18,19.18,0,0,1,.14-1.95,13.89,13.89,0,0,1-1.06,1.91l-6.87,9.14h-0.85l-6.87-9.17a8.33,8.33,0,0,1-1.1-1.88q0.11,1.1.11,1.95v11.3h-3.43Z" transform="translate(-0.49)"/><path class="cls-1" d="M164.87,149.86l10.34-18.27h4.11l10.48,18.27H185l-2.2-4H171.25l-2.12,4h-4.25Zm8.18-7.29h8l-3.93-7.44Z" transform="translate(-0.49)"/><path class="cls-1" d="M203.29,134.84v15H199v-15h-8.39v-3.26h21.07v3.26h-8.43Z" transform="translate(-0.49)"/><path class="cls-1" d="M216.92,149.86V131.59h4.25v18.27h-4.25Z" transform="translate(-0.49)"/><path class="cls-1" d="M245,134.84H233.5v11.58H245v-3.93l4.25,0.89v2.16q0,2.55-1,3.43t-3.58.89H233.78q-2.62,0-3.58-.89t-1-3.43v-9.63q0-2.55,1-3.43t3.58-.89h10.91q2.62,0,3.58.89t1,3.43v1.73l-4.25.67v-3.47Z" transform="translate(-0.49)"/><path class="cls-1" d="M272.94,134.77h-12v3.93h11.43q2.63,0,3.6.88t1,3.44v2.51q0,2.55-1,3.43t-3.59.89h-11.3q-2.62,0-3.59-.89t-1-3.43V145l3.75-.78v2.16h12.92v-4.18h-11.4q-2.62,0-3.58-.89t-1-3.43v-2q0-2.55,1-3.43t3.58-.89h10.38a5.56,5.56,0,0,1,3.52.85,4,4,0,0,1,1,3.15V136l-3.75.88v-2.09Z" transform="translate(-0.49)"/><path class="cls-5" d="M11.51,149.86V131.59h4.25v18.27H11.51Z" transform="translate(-0.49)"/><path class="cls-5" d="M24.19,149.86V131.59h2.9l12.85,10.76a20,20,0,0,1,2.09,2q-0.18-2.55-.18-3.15v-9.6h3.82v18.27h-2.9l-13.42-11.3a12.9,12.9,0,0,1-1.52-1.49Q28,138.85,28,140v9.88H24.19Z" transform="translate(-0.49)"/><path class="cls-5" d="M54.11,149.86V131.59H72.59v3.19H58.36v4.82H66v3.33H58.36v6.94H54.11Z" transform="translate(-0.49)"/><path class="cls-5" d="M78.36,135.91q0-2.55,1-3.43t3.58-.89H96.35q2.62,0,3.58.89t1,3.43v9.63q0,2.55-1,3.43t-3.58.89H82.9q-2.62,0-3.58-.89t-1-3.43v-9.63Zm4.25,10.52h14V134.84h-14v11.58Z" transform="translate(-0.49)"/><path class="cls-5" d="M109,149.86V131.59h15.65q4.11,0,4.11,3.54v4.28q0,3.54-4.11,3.54H122.2l8.43,6.91h-6.09L117.17,143h-4v6.91H109ZM122.7,134.7h-9.56v5.14h9.56a3.13,3.13,0,0,0,1.38-.21,1.34,1.34,0,0,0,.53-1.25v-2.21a1.34,1.34,0,0,0-.53-1.25A3.11,3.11,0,0,0,122.7,134.7Z" transform="translate(-0.49)"/><path class="cls-5" d="M136.44,149.86V131.59h3.43l8.61,11,8.43-11h3.4v18.27h-3.93v-11.3a19.18,19.18,0,0,1,.14-1.95,13.89,13.89,0,0,1-1.06,1.91l-6.87,9.14h-0.85l-6.87-9.17a8.33,8.33,0,0,1-1.1-1.88q0.11,1.1.11,1.95v11.3h-3.43Z" transform="translate(-0.49)"/><path class="cls-5" d="M164.87,149.86l10.34-18.27h4.11l10.48,18.27H185l-2.2-4H171.25l-2.12,4h-4.25Zm8.18-7.29h8l-3.93-7.44Z" transform="translate(-0.49)"/><path class="cls-5" d="M203.29,134.84v15H199v-15h-8.39v-3.26h21.07v3.26h-8.43Z" transform="translate(-0.49)"/><path class="cls-5" d="M216.92,149.86V131.59h4.25v18.27h-4.25Z" transform="translate(-0.49)"/><path class="cls-5" d="M245,134.84H233.5v11.58H245v-3.93l4.25,0.89v2.16q0,2.55-1,3.43t-3.58.89H233.78q-2.62,0-3.58-.89t-1-3.43v-9.63q0-2.55,1-3.43t3.58-.89h10.91q2.62,0,3.58.89t1,3.43v1.73l-4.25.67v-3.47Z" transform="translate(-0.49)"/><path class="cls-5" d="M272.94,134.77h-12v3.93h11.43q2.63,0,3.6.88t1,3.44v2.51q0,2.55-1,3.43t-3.59.89h-11.3q-2.62,0-3.59-.89t-1-3.43V145l3.75-.78v2.16h12.92v-4.18h-11.4q-2.62,0-3.58-.89t-1-3.43v-2q0-2.55,1-3.43t3.58-.89h10.38a5.56,5.56,0,0,1,3.52.85,4,4,0,0,1,1,3.15V136l-3.75.88v-2.09Z" transform="translate(-0.49)"/><path class="cls-3" d="M11.51,149.86V131.59h4.25v18.27H11.51Z" transform="translate(-0.49)"/><path class="cls-3" d="M24.19,149.86V131.59h2.9l12.85,10.76a20,20,0,0,1,2.09,2q-0.18-2.55-.18-3.15v-9.6h3.82v18.27h-2.9l-13.42-11.3a12.9,12.9,0,0,1-1.52-1.49Q28,138.85,28,140v9.88H24.19Z" transform="translate(-0.49)"/><path class="cls-3" d="M54.11,149.86V131.59H72.59v3.19H58.36v4.82H66v3.33H58.36v6.94H54.11Z" transform="translate(-0.49)"/><path class="cls-3" d="M78.36,135.91q0-2.55,1-3.43t3.58-.89H96.35q2.62,0,3.58.89t1,3.43v9.63q0,2.55-1,3.43t-3.58.89H82.9q-2.62,0-3.58-.89t-1-3.43v-9.63Zm4.25,10.52h14V134.84h-14v11.58Z" transform="translate(-0.49)"/><path class="cls-3" d="M109,149.86V131.59h15.65q4.11,0,4.11,3.54v4.28q0,3.54-4.11,3.54H122.2l8.43,6.91h-6.09L117.17,143h-4v6.91H109ZM122.7,134.7h-9.56v5.14h9.56a3.13,3.13,0,0,0,1.38-.21,1.34,1.34,0,0,0,.53-1.25v-2.21a1.34,1.34,0,0,0-.53-1.25A3.11,3.11,0,0,0,122.7,134.7Z" transform="translate(-0.49)"/><path class="cls-3" d="M136.44,149.86V131.59h3.43l8.61,11,8.43-11h3.4v18.27h-3.93v-11.3a19.18,19.18,0,0,1,.14-1.95,13.89,13.89,0,0,1-1.06,1.91l-6.87,9.14h-0.85l-6.87-9.17a8.33,8.33,0,0,1-1.1-1.88q0.11,1.1.11,1.95v11.3h-3.43Z" transform="translate(-0.49)"/><path class="cls-3" d="M164.87,149.86l10.34-18.27h4.11l10.48,18.27H185l-2.2-4H171.25l-2.12,4h-4.25Zm8.18-7.29h8l-3.93-7.44Z" transform="translate(-0.49)"/><path class="cls-3" d="M203.29,134.84v15H199v-15h-8.39v-3.26h21.07v3.26h-8.43Z" transform="translate(-0.49)"/><path class="cls-3" d="M216.92,149.86V131.59h4.25v18.27h-4.25Z" transform="translate(-0.49)"/><path class="cls-3" d="M245,134.84H233.5v11.58H245v-3.93l4.25,0.89v2.16q0,2.55-1,3.43t-3.58.89H233.78q-2.62,0-3.58-.89t-1-3.43v-9.63q0-2.55,1-3.43t3.58-.89h10.91q2.62,0,3.58.89t1,3.43v1.73l-4.25.67v-3.47Z" transform="translate(-0.49)"/><path class="cls-3" d="M272.94,134.77h-12v3.93h11.43q2.63,0,3.6.88t1,3.44v2.51q0,2.55-1,3.43t-3.59.89h-11.3q-2.62,0-3.59-.89t-1-3.43V145l3.75-.78v2.16h12.92v-4.18h-11.4q-2.62,0-3.58-.89t-1-3.43v-2q0-2.55,1-3.43t3.58-.89h10.38a5.56,5.56,0,0,1,3.52.85,4,4,0,0,1,1,3.15V136l-3.75.88v-2.09Z" transform="translate(-0.49)"/></svg>